<svg xmlns="http://www.w3.org/2000/svg" version="1.1" xmlns:xlink="http://www.w3.org/1999/xlink" xmlns:svgjs="http://svgjs.dev/svgjs" viewBox="0 0 800 800"><defs><linearGradient x1="50%" y1="0%" x2="50%" y2="100%" id="ffflurry-grad" gradientTransform="rotate(270)"><stop stop-color="hsl(238, 82%, 13%)" stop-opacity="1" offset="0%"></stop><stop stop-color="hsl(1.4, 100%, 67%)" stop-opacity="1" offset="45%"></stop><stop stop-color="hsl(167, 52%, 78%)" stop-opacity="1" offset="100%"></stop></linearGradient></defs><rect width="100%" height="100%" fill="hsl(238, 82%, 13%)"></rect><g fill="url(#ffflurry-grad)"><rect width="120" height="3" x="596" y="501.5" rx="1.5" transform="rotate(45, 656, 503)" opacity="0.53"></rect><rect width="711" height="3" x="-138.5" y="297.5" rx="1.5" transform="rotate(45, 217, 299)" opacity="0.45"></rect><rect width="425" height="3" x="554.5" y="347.5" rx="1.5" transform="rotate(45, 767, 349)" opacity="0.15"></rect><rect width="595" height="3" x="-188.5" y="491.5" rx="1.5" transform="rotate(45, 109, 493)" opacity="0.28"></rect><rect width="209" height="3" x="-70.5" y="480.5" rx="1.5" transform="rotate(45, 34, 482)" opacity="0.65"></rect><rect width="282" height="3" x="517" y="741.5" rx="1.5" transform="rotate(45, 658, 743)" opacity="0.97"></rect><rect width="425" height="3" x="47.5" y="757.5" rx="1.5" transform="rotate(45, 260, 759)" opacity="0.71"></rect><rect width="196" height="3" x="625" y="272.5" rx="1.5" transform="rotate(45, 723, 274)" opacity="0.35"></rect><rect width="265" height="3" x="393.5" y="656.5" rx="1.5" transform="rotate(45, 526, 658)" opacity="0.53"></rect><rect width="283" height="3" x="375.5" y="61.5" rx="1.5" transform="rotate(45, 517, 63)" opacity="0.61"></rect><rect width="265" height="3" x="371.5" y="583.5" rx="1.5" transform="rotate(45, 504, 585)" opacity="0.58"></rect><rect width="425" height="3" x="-124.5" y="582.5" rx="1.5" transform="rotate(45, 88, 584)" opacity="0.64"></rect><rect width="578" height="3" x="333" y="414.5" rx="1.5" transform="rotate(45, 622, 416)" opacity="0.10"></rect><rect width="649" height="3" x="26.5" y="136.5" rx="1.5" transform="rotate(45, 351, 138)" opacity="0.66"></rect><rect width="331" height="3" x="90.5" y="66.5" rx="1.5" transform="rotate(45, 256, 68)" opacity="0.66"></rect><rect width="328" height="3" x="262" y="185.5" rx="1.5" transform="rotate(45, 426, 187)" opacity="0.45"></rect><rect width="47" height="3" x="3.5" y="98.5" rx="1.5" transform="rotate(45, 27, 100)" opacity="0.70"></rect><rect width="239" height="3" x="5.5" y="262.5" rx="1.5" transform="rotate(45, 125, 264)" opacity="0.52"></rect><rect width="549" height="3" x="165.5" y="78.5" rx="1.5" transform="rotate(45, 440, 80)" opacity="0.99"></rect><rect width="120" height="3" x="63" y="764.5" rx="1.5" transform="rotate(45, 123, 766)" opacity="0.45"></rect><rect width="342" height="3" x="537" y="61.5" rx="1.5" transform="rotate(45, 708, 63)" opacity="0.15"></rect><rect width="509" height="3" x="178.5" y="393.5" rx="1.5" transform="rotate(45, 433, 395)" opacity="0.39"></rect><rect width="103" height="3" x="123.5" y="123.5" rx="1.5" transform="rotate(45, 175, 125)" opacity="0.48"></rect><rect width="341" height="3" x="489.5" y="27.5" rx="1.5" transform="rotate(45, 660, 29)" opacity="0.10"></rect><rect width="588" height="3" x="359" y="208.5" rx="1.5" transform="rotate(45, 653, 210)" opacity="0.15"></rect><rect width="160" height="3" x="378" y="266.5" rx="1.5" transform="rotate(45, 458, 268)" opacity="0.91"></rect><rect width="405" height="3" x="147.5" y="37.5" rx="1.5" transform="rotate(45, 350, 39)" opacity="0.51"></rect><rect width="489" height="3" x="37.5" y="528.5" rx="1.5" transform="rotate(45, 282, 530)" opacity="0.67"></rect><rect width="199" height="3" x="-74.5" y="609.5" rx="1.5" transform="rotate(45, 25, 611)" opacity="0.50"></rect><rect width="212" height="3" x="-20" y="85.5" rx="1.5" transform="rotate(45, 86, 87)" opacity="0.17"></rect><rect width="852" height="3" x="-367" y="353.5" rx="1.5" transform="rotate(45, 59, 355)" opacity="0.35"></rect><rect width="483" height="3" x="36.5" y="665.5" rx="1.5" transform="rotate(45, 278, 667)" opacity="0.63"></rect><rect width="173" height="3" x="655.5" y="601.5" rx="1.5" transform="rotate(45, 742, 603)" opacity="0.99"></rect><rect width="289" height="3" x="242.5" y="762.5" rx="1.5" transform="rotate(45, 387, 764)" opacity="0.90"></rect><rect width="795" height="3" x="129.5" y="462.5" rx="1.5" transform="rotate(45, 527, 464)" opacity="0.29"></rect><rect width="218" height="3" x="207" y="444.5" rx="1.5" transform="rotate(45, 316, 446)" opacity="0.12"></rect><rect width="630" height="3" x="-274" y="735.5" rx="1.5" transform="rotate(45, 41, 737)" opacity="0.74"></rect><rect width="402" height="3" x="116" y="594.5" rx="1.5" transform="rotate(45, 317, 596)" opacity="0.25"></rect><rect width="250" height="3" x="609" y="139.5" rx="1.5" transform="rotate(45, 734, 141)" opacity="0.49"></rect><rect width="349" height="3" x="40.5" y="634.5" rx="1.5" transform="rotate(45, 215, 636)" opacity="0.30"></rect><rect width="295" height="3" x="596.5" y="763.5" rx="1.5" transform="rotate(45, 744, 765)" opacity="0.16"></rect><rect width="206" height="3" x="-62" y="24.5" rx="1.5" transform="rotate(45, 41, 26)" opacity="0.87"></rect><rect width="548" height="3" x="156" y="543.5" rx="1.5" transform="rotate(45, 430, 545)" opacity="0.47"></rect><rect width="606" height="3" x="275" y="548.5" rx="1.5" transform="rotate(45, 578, 550)" opacity="0.74"></rect><rect width="100" height="3" x="543" y="755.5" rx="1.5" transform="rotate(45, 593, 757)" opacity="0.99"></rect><rect width="269" height="3" x="443.5" y="157.5" rx="1.5" transform="rotate(45, 578, 159)" opacity="0.84"></rect><rect width="212" height="3" x="537" y="605.5" rx="1.5" transform="rotate(45, 643, 607)" opacity="0.87"></rect><rect width="79" height="3" x="716.5" y="528.5" rx="1.5" transform="rotate(45, 756, 530)" opacity="0.54"></rect><rect width="160" height="3" x="71" y="659.5" rx="1.5" transform="rotate(45, 151, 661)" opacity="0.23"></rect><rect width="352" height="3" x="8" y="728.5" rx="1.5" transform="rotate(45, 184, 730)" opacity="0.89"></rect><rect width="94" height="3" x="134" y="406.5" rx="1.5" transform="rotate(45, 181, 408)" opacity="0.24"></rect><rect width="556" height="3" x="241" y="324.5" rx="1.5" transform="rotate(45, 519, 326)" opacity="0.12"></rect><rect width="337" height="3" x="332.5" y="754.5" rx="1.5" transform="rotate(45, 501, 756)" opacity="0.27"></rect><rect width="620" height="3" x="-46" y="180.5" rx="1.5" transform="rotate(45, 264, 182)" opacity="0.93"></rect><rect width="428" height="3" x="384" y="326.5" rx="1.5" transform="rotate(45, 598, 328)" opacity="0.10"></rect><rect width="77" height="3" x="162.5" y="26.5" rx="1.5" transform="rotate(45, 201, 28)" opacity="0.74"></rect><rect width="239" height="3" x="-78.5" y="198.5" rx="1.5" transform="rotate(45, 41, 200)" opacity="0.70"></rect><rect width="505" height="3" x="100.5" y="271.5" rx="1.5" transform="rotate(45, 353, 273)" opacity="0.50"></rect><rect width="391" height="3" x="338.5" y="216.5" rx="1.5" transform="rotate(45, 534, 218)" opacity="0.41"></rect><rect width="201" height="3" x="483.5" y="681.5" rx="1.5" transform="rotate(45, 584, 683)" opacity="0.34"></rect><rect width="254" height="3" x="-37" y="661.5" rx="1.5" transform="rotate(45, 90, 663)" opacity="0.12"></rect><rect width="290" height="3" x="599" y="443.5" rx="1.5" transform="rotate(45, 744, 445)" opacity="0.93"></rect><rect width="42" height="3" x="746" y="214.5" rx="1.5" transform="rotate(45, 767, 216)" opacity="0.34"></rect><rect width="374" height="3" x="-52" y="179.5" rx="1.5" transform="rotate(45, 135, 181)" opacity="0.42"></rect><rect width="565" height="3" x="62.5" y="696.5" rx="1.5" transform="rotate(45, 345, 698)" opacity="0.95"></rect><rect width="144" height="3" x="103" y="564.5" rx="1.5" transform="rotate(45, 175, 566)" opacity="0.95"></rect><rect width="42" height="3" x="751" y="685.5" rx="1.5" transform="rotate(45, 772, 687)" opacity="0.73"></rect><rect width="165" height="3" x="616.5" y="674.5" rx="1.5" transform="rotate(45, 699, 676)" opacity="0.29"></rect><rect width="162" height="3" x="347" y="658.5" rx="1.5" transform="rotate(45, 428, 660)" opacity="0.30"></rect><rect width="434" height="3" x="87" y="360.5" rx="1.5" transform="rotate(45, 304, 362)" opacity="0.77"></rect><rect width="141" height="3" x="306.5" y="496.5" rx="1.5" transform="rotate(45, 377, 498)" opacity="0.80"></rect><rect width="40" height="3" x="103" y="17.5" rx="1.5" transform="rotate(45, 123, 19)" opacity="0.13"></rect><rect width="367" height="3" x="421.5" y="65.5" rx="1.5" transform="rotate(45, 605, 67)" opacity="0.54"></rect><rect width="455" height="3" x="-14.5" y="490.5" rx="1.5" transform="rotate(45, 213, 492)" opacity="0.31"></rect><rect width="268" height="3" x="9" y="63.5" rx="1.5" transform="rotate(45, 143, 65)" opacity="0.14"></rect><rect width="570" height="3" x="402" y="352.5" rx="1.5" transform="rotate(45, 687, 354)" opacity="0.39"></rect><rect width="212" height="3" x="666" y="49.5" rx="1.5" transform="rotate(45, 772, 51)" opacity="0.44"></rect></g></svg>